<svg width="65" height="65" viewBox="0 0 65 65" fill="none" xmlns="http://www.w3.org/2000/svg">
<path d="M34.19 0.905949C34.0045 0.627754 33.7532 0.399653 33.4584 0.241892C33.1636 0.0841304 32.8344 0.00158691 32.5 0.00158691C32.1656 0.00158691 31.8364 0.0841304 31.5416 0.241892C31.2468 0.399653 30.9955 0.627754 30.81 0.905949L18.6225 19.1872C18.419 19.4931 18.3022 19.8485 18.2846 20.2155C18.2671 20.5825 18.3494 20.9473 18.5228 21.2713C18.6962 21.5952 18.9543 21.866 19.2694 22.0549C19.5846 22.2437 19.9451 22.3436 20.3125 22.3438H20.7106L12.4963 35.4859C12.3041 35.7934 12.1977 36.1467 12.1882 36.5092C12.1787 36.8717 12.2664 37.2301 12.4421 37.5472C12.6179 37.8643 12.8754 38.1286 13.1878 38.3127C13.5002 38.4967 13.8562 38.5938 14.2188 38.5938H14.9947L8.34031 51.9025C8.18513 52.2122 8.11172 52.5564 8.12706 52.9025C8.1424 53.2485 8.24598 53.5849 8.42795 53.8796C8.60992 54.1744 8.86424 54.4177 9.16674 54.5864C9.46924 54.7552 9.80987 54.8438 10.1563 54.8438H28.4375V65H36.5625V54.8438H54.8438C55.1901 54.8438 55.5308 54.7552 55.8333 54.5864C56.1358 54.4177 56.3901 54.1744 56.5721 53.8796C56.754 53.5849 56.8576 53.2485 56.8729 52.9025C56.8883 52.5564 56.8149 52.2122 56.6597 51.9025L50.0094 38.5938H50.7853C51.1479 38.5938 51.5039 38.4967 51.8163 38.3127C52.1287 38.1286 52.3862 37.8643 52.5619 37.5472C52.7377 37.2301 52.8254 36.8717 52.8159 36.5092C52.8064 36.1467 52.7 35.7934 52.5078 35.4859L44.2894 22.3438H44.6875C45.0549 22.3436 45.4154 22.2437 45.7306 22.0549C46.0457 21.866 46.3038 21.5952 46.4772 21.2713C46.6506 20.9473 46.7329 20.5825 46.7154 20.2155C46.6978 19.8485 46.5811 19.4931 46.3775 19.1872L34.19 0.905949ZM26.1503 19.3294C25.9749 19.0122 25.7177 18.7477 25.4055 18.5634C25.0933 18.379 24.7375 18.2816 24.375 18.2813H24.1069L32.5 5.69157L40.8931 18.2813H40.625C40.2624 18.2813 39.9064 18.3783 39.594 18.5624C39.2816 18.7464 39.0241 19.0107 38.8484 19.3278C38.6726 19.645 38.5849 20.0034 38.5944 20.3658C38.604 20.7283 38.7103 21.0816 38.9025 21.3891L47.1169 34.5313H46.7188C46.3724 34.5313 46.0317 34.6199 45.7292 34.7886C45.4267 34.9574 45.1724 35.2007 44.9905 35.4954C44.8085 35.7901 44.7049 36.1265 44.6896 36.4726C44.6742 36.8186 44.7476 37.1628 44.9028 37.4725L51.5531 50.7813H13.4428L20.0972 37.4725C20.2524 37.1628 20.3258 36.8186 20.3104 36.4726C20.2951 36.1265 20.1915 35.7901 20.0096 35.4954C19.8276 35.2007 19.5733 34.9574 19.2708 34.7886C18.9683 34.6199 18.6276 34.5313 18.2813 34.5313H17.8831L26.0975 21.3891C26.2892 21.0817 26.3951 20.7286 26.4044 20.3664C26.4137 20.0043 26.326 19.6462 26.1503 19.3294Z" fill="#002EB6"/>
</svg>
