<svg width="65" height="65" viewBox="0 0 65 65" fill="none" xmlns="http://www.w3.org/2000/svg">
<path d="M10.9308 28.1667L18.59 35.8258L35.8258 18.59L28.1639 10.9308L10.9308 28.1667ZM45.3998 43.485L31.9935 30.0787L30.0815 31.9962L43.4877 45.4025L45.3998 43.485ZM49.2321 47.3173L47.3173 49.2321L52.1029 54.0177C52.3583 54.2644 52.7004 54.4009 53.0554 54.3978C53.4105 54.3947 53.7501 54.2523 54.0012 54.0012C54.2523 53.7501 54.3947 53.4105 54.3978 53.0554C54.4009 52.7004 54.2644 52.3583 54.0177 52.1029L49.2321 47.3173ZM20.3396 11.0933L24.3344 7.09583C24.8374 6.59261 25.4346 6.19342 26.0919 5.92107C26.7493 5.64872 27.4538 5.50854 28.1653 5.50854C28.8768 5.50854 29.5814 5.64872 30.2387 5.92107C30.896 6.19342 31.4932 6.59261 31.9962 7.09583L39.6554 14.7577C40.6709 15.7735 41.2413 17.151 41.2413 18.5873C41.2413 20.0236 40.6709 21.4011 39.6554 22.4169L35.8258 26.2465L57.85 48.2706C58.4788 48.8994 58.9776 49.6459 59.3179 50.4675C59.6582 51.2891 59.8334 52.1697 59.8334 53.0589C59.8334 53.9482 59.6582 54.8288 59.3179 55.6504C58.9776 56.472 58.4788 57.2185 57.85 57.8473C57.2212 58.4761 56.4747 58.9749 55.6531 59.3152C54.8315 59.6555 53.9509 59.8307 53.0617 59.8307C52.1724 59.8307 51.2918 59.6555 50.4702 59.3152C49.6486 58.9749 48.9021 58.4761 48.2733 57.8473L26.2492 35.8231L22.4196 39.6527C21.4038 40.6682 20.0263 41.2386 18.59 41.2386C17.1537 41.2386 15.7762 40.6682 14.7604 39.6527L7.09583 31.9962C6.59261 31.4932 6.19342 30.896 5.92107 30.2387C5.64872 29.5814 5.50854 28.8768 5.50854 28.1653C5.50854 27.4538 5.64872 26.7493 5.92107 26.0919C6.19342 25.4346 6.59261 24.8374 7.09583 24.3344L11.0906 20.3423C10.728 19.5839 10.6097 18.7317 10.7518 17.9032C10.8939 17.0747 11.2896 16.3106 11.8842 15.7165L15.7165 11.8896C16.3106 11.295 17.0747 10.8993 17.9032 10.7572C18.7317 10.6151 19.5839 10.7335 20.3423 11.096L20.3396 11.0933Z" fill="#002EB6"/>
</svg>
