<svg width="40" height="40" viewBox="0 0 40 40" fill="none" xmlns="http://www.w3.org/2000/svg">
<path fill-rule="evenodd" clip-rule="evenodd" d="M20.4023 34.8063C22.628 33.7005 33.3333 27.927 33.3333 19.1667C33.3333 11.6667 27.1111 6.66666 20 6.66666C13.1271 6.66666 6.66663 11.6667 6.66663 19.1667C6.66663 27.927 17.3719 33.7005 19.5976 34.8063C19.8561 34.9347 20.1438 34.9347 20.4023 34.8063ZM19.7363 24.7225L14.9502 19.6845C13.9996 18.6838 13.8509 17.1651 14.5894 15.9992C15.8192 14.0573 18.6834 14.1537 19.78 16.1737L19.896 16.3874C19.9408 16.4699 20.0591 16.4699 20.1039 16.3874L20.2199 16.1737C21.3165 14.1537 24.1807 14.0573 25.4105 15.9992C26.149 17.1651 26.0003 18.6838 25.0497 19.6845L20.2636 24.7225C20.1399 24.8527 20.078 24.9178 20 24.9178C19.9219 24.9178 19.86 24.8527 19.7363 24.7225Z" fill="#E94E2D"/>
</svg>
