<svg width="191" height="66" viewBox="0 0 191 66" fill="none" xmlns="http://www.w3.org/2000/svg">
<path d="M2.81818 31V7.72727H16.7727V10.2273H5.63636V18.0909H15.7273V20.5909H5.63636V31H2.81818ZM21.5994 31V7.72727H24.4176V28.5H35.2358V31H21.5994ZM58.3295 19.3636C58.3295 21.8182 57.8864 23.9394 57 25.7273C56.1136 27.5152 54.8977 28.8939 53.3523 29.8636C51.8068 30.8333 50.0417 31.3182 48.0568 31.3182C46.072 31.3182 44.3068 30.8333 42.7614 29.8636C41.2159 28.8939 40 27.5152 39.1136 25.7273C38.2273 23.9394 37.7841 21.8182 37.7841 19.3636C37.7841 16.9091 38.2273 14.7879 39.1136 13C40 11.2121 41.2159 9.83333 42.7614 8.86364C44.3068 7.89394 46.072 7.40909 48.0568 7.40909C50.0417 7.40909 51.8068 7.89394 53.3523 8.86364C54.8977 9.83333 56.1136 11.2121 57 13C57.8864 14.7879 58.3295 16.9091 58.3295 19.3636ZM55.6023 19.3636C55.6023 17.3485 55.2652 15.6477 54.5909 14.2614C53.9242 12.875 53.0189 11.8258 51.875 11.1136C50.7386 10.4015 49.4659 10.0455 48.0568 10.0455C46.6477 10.0455 45.3712 10.4015 44.2273 11.1136C43.0909 11.8258 42.1856 12.875 41.5114 14.2614C40.8447 15.6477 40.5114 17.3485 40.5114 19.3636C40.5114 21.3788 40.8447 23.0795 41.5114 24.4659C42.1856 25.8523 43.0909 26.9015 44.2273 27.6136C45.3712 28.3258 46.6477 28.6818 48.0568 28.6818C49.4659 28.6818 50.7386 28.3258 51.875 27.6136C53.0189 26.9015 53.9242 25.8523 54.5909 24.4659C55.2652 23.0795 55.6023 21.3788 55.6023 19.3636ZM75.7955 13.5455C75.6591 12.3939 75.1061 11.5 74.1364 10.8636C73.1667 10.2273 71.9773 9.90909 70.5682 9.90909C69.5379 9.90909 68.6364 10.0758 67.8636 10.4091C67.0985 10.7424 66.5 11.2008 66.0682 11.7841C65.6439 12.3674 65.4318 13.0303 65.4318 13.7727C65.4318 14.3939 65.5795 14.928 65.875 15.375C66.178 15.8144 66.5644 16.1818 67.0341 16.4773C67.5038 16.7652 67.9962 17.0038 68.5114 17.1932C69.0265 17.375 69.5 17.5227 69.9318 17.6364L72.2955 18.2727C72.9015 18.4318 73.5758 18.6515 74.3182 18.9318C75.0682 19.2121 75.7841 19.5947 76.4659 20.0795C77.1553 20.5568 77.7235 21.1705 78.1705 21.9205C78.6174 22.6705 78.8409 23.5909 78.8409 24.6818C78.8409 25.9394 78.5114 27.0758 77.8523 28.0909C77.2008 29.1061 76.2462 29.9129 74.9886 30.5114C73.7386 31.1098 72.2197 31.4091 70.4318 31.4091C68.7652 31.4091 67.322 31.1402 66.1023 30.6023C64.8902 30.0644 63.9356 29.3144 63.2386 28.3523C62.5492 27.3902 62.1591 26.2727 62.0682 25H64.9773C65.053 25.8788 65.3485 26.6061 65.8636 27.1818C66.3864 27.75 67.0455 28.1742 67.8409 28.4545C68.6439 28.7273 69.5076 28.8636 70.4318 28.8636C71.5076 28.8636 72.4735 28.6894 73.3295 28.3409C74.1856 27.9848 74.8636 27.4924 75.3636 26.8636C75.8636 26.2273 76.1136 25.4848 76.1136 24.6364C76.1136 23.8636 75.8977 23.2348 75.4659 22.75C75.0341 22.2652 74.4659 21.8712 73.7614 21.5682C73.0568 21.2652 72.2955 21 71.4773 20.7727L68.6136 19.9545C66.7955 19.4318 65.3561 18.6856 64.2955 17.7159C63.2348 16.7462 62.7045 15.4773 62.7045 13.9091C62.7045 12.6061 63.0568 11.4697 63.7614 10.5C64.4735 9.52273 65.428 8.76515 66.625 8.22727C67.8295 7.68182 69.1742 7.40909 70.6591 7.40909C72.1591 7.40909 73.4924 7.67803 74.6591 8.21591C75.8258 8.74621 76.75 9.47348 77.4318 10.3977C78.1212 11.322 78.4848 12.3712 78.5227 13.5455H75.7955ZM82.2017 10.2273V7.72727H99.6562V10.2273H92.3381V31H89.5199V10.2273H82.2017ZM104.006 31V7.72727H111.869C113.688 7.72727 115.18 8.03788 116.347 8.65909C117.513 9.27273 118.377 10.1174 118.938 11.1932C119.498 12.2689 119.778 13.4924 119.778 14.8636C119.778 16.2348 119.498 17.4508 118.938 18.5114C118.377 19.572 117.517 20.4053 116.358 21.0114C115.199 21.6098 113.718 21.9091 111.915 21.9091H105.551V19.3636H111.824C113.066 19.3636 114.066 19.1818 114.824 18.8182C115.589 18.4545 116.142 17.9394 116.483 17.2727C116.831 16.5985 117.006 15.7955 117.006 14.8636C117.006 13.9318 116.831 13.1174 116.483 12.4205C116.134 11.7235 115.578 11.1856 114.812 10.8068C114.047 10.4205 113.036 10.2273 111.778 10.2273H106.824V31H104.006ZM114.96 20.5455L120.688 31H117.415L111.778 20.5455H114.96ZM125.429 31H122.474L131.02 7.72727H133.929L142.474 31H139.52L132.565 11.4091H132.384L125.429 31ZM126.52 21.9091H138.429V24.4091H126.52V21.9091ZM164.554 7.72727V31H161.827L149.145 12.7273H148.918V31H146.099V7.72727H148.827L161.554 26.0455H161.781V7.72727H164.554ZM177.375 31H170.193V7.72727H177.693C179.951 7.72727 181.883 8.19318 183.489 9.125C185.095 10.0492 186.326 11.3788 187.182 13.1136C188.038 14.8409 188.466 16.9091 188.466 19.3182C188.466 21.7424 188.034 23.8295 187.17 25.5795C186.307 27.322 185.049 28.6629 183.398 29.6023C181.746 30.5341 179.739 31 177.375 31ZM173.011 28.5H177.193C179.117 28.5 180.712 28.1288 181.977 27.3864C183.242 26.6439 184.186 25.5871 184.807 24.2159C185.428 22.8447 185.739 21.2121 185.739 19.3182C185.739 17.4394 185.432 15.822 184.818 14.4659C184.205 13.1023 183.288 12.0568 182.068 11.3295C180.848 10.5947 179.33 10.2273 177.511 10.2273H173.011V28.5ZM6.78409 60.2386C5.63636 60.2386 4.64773 60.0284 3.81818 59.608C2.98864 59.1875 2.34943 58.6108 1.90057 57.8778C1.4517 57.1449 1.22727 56.3068 1.22727 55.3636C1.22727 54.6364 1.38068 53.9915 1.6875 53.429C2 52.8608 2.42898 52.3352 2.97443 51.8523C3.52557 51.3636 4.15909 50.875 4.875 50.3864L7.39773 48.5114C7.89205 48.1875 8.28693 47.8409 8.58239 47.4716C8.88352 47.1023 9.03409 46.6193 9.03409 46.0227C9.03409 45.5795 8.83807 45.1506 8.44602 44.7358C8.05966 44.321 7.55114 44.1136 6.92045 44.1136C6.47727 44.1136 6.08523 44.2273 5.74432 44.4545C5.40909 44.6761 5.14489 44.9602 4.9517 45.3068C4.7642 45.6477 4.67045 46 4.67045 46.3636C4.67045 46.7727 4.78125 47.1875 5.00284 47.608C5.23011 48.0227 5.51705 48.4489 5.86364 48.8864C6.21591 49.3182 6.57955 49.7614 6.95455 50.2159L14.9659 60H12.5455L5.93182 52.0227C5.31818 51.2841 4.76136 50.6136 4.26136 50.0114C3.76136 49.4091 3.36364 48.8153 3.06818 48.2301C2.77273 47.6449 2.625 47.0114 2.625 46.3295C2.625 45.5455 2.7983 44.858 3.14489 44.267C3.49716 43.6705 3.98864 43.2074 4.61932 42.8778C5.25568 42.5426 6 42.375 6.85227 42.375C7.72727 42.375 8.48011 42.5455 9.1108 42.8864C9.74148 43.2216 10.2273 43.6676 10.5682 44.2244C10.9091 44.7756 11.0795 45.375 11.0795 46.0227C11.0795 46.858 10.8722 47.5824 10.4574 48.196C10.0426 48.8097 9.47727 49.3807 8.76136 49.9091L5.28409 52.5C4.5 53.0795 3.96875 53.642 3.69034 54.1875C3.41193 54.733 3.27273 55.125 3.27273 55.3636C3.27273 55.9091 3.41477 56.4176 3.69886 56.8892C3.98295 57.3608 4.38352 57.7415 4.90057 58.0312C5.41761 58.321 6.02273 58.4659 6.71591 58.4659C7.375 58.4659 8.01705 58.3267 8.64205 58.0483C9.26705 57.7642 9.83239 57.3551 10.3381 56.821C10.8494 56.2869 11.2528 55.6449 11.5483 54.8949C11.8494 54.1449 12 53.3011 12 52.3636H13.9432C13.9432 53.5227 13.8097 54.4687 13.5426 55.2017C13.2756 55.9347 12.9744 56.5085 12.6392 56.9233C12.304 57.3381 12.0341 57.6477 11.8295 57.8523C11.7614 57.9375 11.6989 58.0227 11.642 58.108C11.5852 58.1932 11.5227 58.2784 11.4545 58.3636C10.892 58.9943 10.1818 59.4659 9.32386 59.7784C8.46591 60.0852 7.61932 60.2386 6.78409 60.2386ZM24.2152 60V42.5455H26.3288V51.2045H26.5334L34.3743 42.5455H37.1357L29.8061 50.4205L37.1357 60H34.5788L28.5107 51.8864L26.3288 54.3409V60H24.2152ZM53.7124 42.5455V60H51.6669L42.1555 46.2955H41.9851V60H39.8714V42.5455H41.9169L51.4624 56.2841H51.6328V42.5455H53.7124ZM69.3963 42.5455H71.5099V54.1023C71.5099 55.2955 71.2287 56.3608 70.6662 57.2983C70.1094 58.2301 69.3224 58.9659 68.3054 59.5057C67.2884 60.0398 66.0952 60.3068 64.7259 60.3068C63.3565 60.3068 62.1634 60.0398 61.1463 59.5057C60.1293 58.9659 59.3395 58.2301 58.777 57.2983C58.2202 56.3608 57.9418 55.2955 57.9418 54.1023V42.5455H60.0554V53.9318C60.0554 54.7841 60.2429 55.5426 60.6179 56.2074C60.9929 56.8665 61.527 57.3864 62.2202 57.767C62.919 58.142 63.7543 58.3295 64.7259 58.3295C65.6974 58.3295 66.5327 58.142 67.2315 57.767C67.9304 57.3864 68.4645 56.8665 68.8338 56.2074C69.2088 55.5426 69.3963 54.7841 69.3963 53.9318V42.5455ZM74.7763 44.4205V42.5455H87.8672V44.4205H82.3786V60H80.2649V44.4205H74.7763ZM100.675 46.9091C100.572 46.0455 100.158 45.375 99.4304 44.8977C98.7031 44.4205 97.8111 44.1818 96.7543 44.1818C95.9815 44.1818 95.3054 44.3068 94.7259 44.5568C94.152 44.8068 93.7031 45.1506 93.3793 45.5881C93.0611 46.0256 92.902 46.5227 92.902 47.0795C92.902 47.5455 93.0128 47.946 93.2344 48.2812C93.4616 48.6108 93.7514 48.8864 94.1037 49.108C94.456 49.3239 94.8253 49.5028 95.2116 49.6449C95.598 49.7812 95.9531 49.892 96.277 49.9773L98.0497 50.4545C98.5043 50.5739 99.0099 50.7386 99.5668 50.9489C100.129 51.1591 100.666 51.446 101.178 51.8097C101.695 52.1676 102.121 52.6278 102.456 53.1903C102.791 53.7528 102.959 54.4432 102.959 55.2614C102.959 56.2045 102.712 57.0568 102.217 57.8182C101.729 58.5795 101.013 59.1847 100.07 59.6335C99.1321 60.0824 97.9929 60.3068 96.652 60.3068C95.402 60.3068 94.3196 60.1051 93.4048 59.7017C92.4957 59.2983 91.7798 58.7358 91.2571 58.0142C90.7401 57.2926 90.4474 56.4545 90.3793 55.5H92.5611C92.6179 56.1591 92.8395 56.7045 93.2259 57.1364C93.6179 57.5625 94.1122 57.8807 94.7088 58.0909C95.3111 58.2955 95.9588 58.3977 96.652 58.3977C97.4588 58.3977 98.1832 58.267 98.8253 58.0057C99.4673 57.7386 99.9759 57.3693 100.351 56.8977C100.726 56.4205 100.913 55.8636 100.913 55.2273C100.913 54.6477 100.751 54.1761 100.428 53.8125C100.104 53.4489 99.6776 53.1534 99.1491 52.9261C98.6207 52.6989 98.0497 52.5 97.4361 52.3295L95.2884 51.7159C93.9247 51.3239 92.8452 50.7642 92.0497 50.0369C91.2543 49.3097 90.8565 48.358 90.8565 47.1818C90.8565 46.2045 91.1207 45.3523 91.6491 44.625C92.1832 43.892 92.8991 43.3239 93.7969 42.9205C94.7003 42.5114 95.7088 42.3068 96.8224 42.3068C97.9474 42.3068 98.9474 42.5085 99.8224 42.9119C100.697 43.3097 101.391 43.8551 101.902 44.5483C102.419 45.2415 102.692 46.0284 102.72 46.9091H100.675ZM106.434 60V42.5455H116.968V44.4205H108.548V50.3182H116.423V52.1932H108.548V58.125H117.104V60H106.434ZM134.619 42.5455V60H132.573L123.062 46.2955H122.891V60H120.778V42.5455H122.823L132.369 56.2841H132.539V42.5455H134.619ZM146.314 60H144.098L150.507 42.5455H152.689L159.098 60H156.882L151.666 45.3068H151.53L146.314 60ZM147.132 53.1818H156.064V55.0568H147.132V53.1818ZM171.362 46.9091C171.26 46.0455 170.845 45.375 170.118 44.8977C169.391 44.4205 168.499 44.1818 167.442 44.1818C166.669 44.1818 165.993 44.3068 165.413 44.5568C164.839 44.8068 164.391 45.1506 164.067 45.5881C163.749 46.0256 163.589 46.5227 163.589 47.0795C163.589 47.5455 163.7 47.946 163.922 48.2812C164.149 48.6108 164.439 48.8864 164.791 49.108C165.143 49.3239 165.513 49.5028 165.899 49.6449C166.286 49.7812 166.641 49.892 166.964 49.9773L168.737 50.4545C169.192 50.5739 169.697 50.7386 170.254 50.9489C170.817 51.1591 171.354 51.446 171.865 51.8097C172.382 52.1676 172.808 52.6278 173.143 53.1903C173.479 53.7528 173.646 54.4432 173.646 55.2614C173.646 56.2045 173.399 57.0568 172.905 57.8182C172.416 58.5795 171.7 59.1847 170.757 59.6335C169.82 60.0824 168.68 60.3068 167.339 60.3068C166.089 60.3068 165.007 60.1051 164.092 59.7017C163.183 59.2983 162.467 58.7358 161.945 58.0142C161.428 57.2926 161.135 56.4545 161.067 55.5H163.249C163.305 56.1591 163.527 56.7045 163.913 57.1364C164.305 57.5625 164.8 57.8807 165.396 58.0909C165.999 58.2955 166.646 58.3977 167.339 58.3977C168.146 58.3977 168.871 58.267 169.513 58.0057C170.155 57.7386 170.663 57.3693 171.038 56.8977C171.413 56.4205 171.601 55.8636 171.601 55.2273C171.601 54.6477 171.439 54.1761 171.115 53.8125C170.791 53.4489 170.365 53.1534 169.837 52.9261C169.308 52.6989 168.737 52.5 168.124 52.3295L165.976 51.7159C164.612 51.3239 163.533 50.7642 162.737 50.0369C161.942 49.3097 161.544 48.358 161.544 47.1818C161.544 46.2045 161.808 45.3523 162.337 44.625C162.871 43.892 163.587 43.3239 164.484 42.9205C165.388 42.5114 166.396 42.3068 167.51 42.3068C168.635 42.3068 169.635 42.5085 170.51 42.9119C171.385 43.3097 172.078 43.8551 172.589 44.5483C173.107 45.2415 173.379 46.0284 173.408 46.9091H171.362Z" fill="#E94E2D"/>
</svg>
