<svg width="146" height="52" viewBox="0 0 146 52" fill="none" xmlns="http://www.w3.org/2000/svg">
<path d="M2.11364 23V5.54545H12.5795V7.42045H4.22727V13.3182H11.7955V15.1932H4.22727V23H2.11364ZM16.1996 23V5.54545H18.3132V21.125H26.4268V23H16.1996ZM43.7472 14.2727C43.7472 16.1136 43.4148 17.7045 42.75 19.0455C42.0852 20.3864 41.1733 21.4205 40.0142 22.1477C38.8551 22.875 37.5313 23.2386 36.0426 23.2386C34.554 23.2386 33.2301 22.875 32.071 22.1477C30.9119 21.4205 30 20.3864 29.3352 19.0455C28.6705 17.7045 28.3381 16.1136 28.3381 14.2727C28.3381 12.4318 28.6705 10.8409 29.3352 9.5C30 8.15909 30.9119 7.125 32.071 6.39773C33.2301 5.67045 34.554 5.30682 36.0426 5.30682C37.5313 5.30682 38.8551 5.67045 40.0142 6.39773C41.1733 7.125 42.0852 8.15909 42.75 9.5C43.4148 10.8409 43.7472 12.4318 43.7472 14.2727ZM41.7017 14.2727C41.7017 12.7614 41.4489 11.4858 40.9432 10.446C40.4432 9.40625 39.7642 8.61932 38.9062 8.08523C38.054 7.55114 37.0994 7.28409 36.0426 7.28409C34.9858 7.28409 34.0284 7.55114 33.1705 8.08523C32.3182 8.61932 31.6392 9.40625 31.1335 10.446C30.6335 11.4858 30.3835 12.7614 30.3835 14.2727C30.3835 15.7841 30.6335 17.0597 31.1335 18.0994C31.6392 19.1392 32.3182 19.9261 33.1705 20.4602C34.0284 20.9943 34.9858 21.2614 36.0426 21.2614C37.0994 21.2614 38.054 20.9943 38.9062 20.4602C39.7642 19.9261 40.4432 19.1392 40.9432 18.0994C41.4489 17.0597 41.7017 15.7841 41.7017 14.2727ZM56.8466 9.90909C56.7443 9.04545 56.3295 8.375 55.6023 7.89773C54.875 7.42045 53.983 7.18182 52.9261 7.18182C52.1534 7.18182 51.4773 7.30682 50.8977 7.55682C50.3239 7.80682 49.875 8.15057 49.5511 8.58807C49.233 9.02557 49.0739 9.52273 49.0739 10.0795C49.0739 10.5455 49.1847 10.946 49.4062 11.2812C49.6335 11.6108 49.9233 11.8864 50.2756 12.108C50.6278 12.3239 50.9972 12.5028 51.3835 12.6449C51.7699 12.7812 52.125 12.892 52.4489 12.9773L54.2216 13.4545C54.6761 13.5739 55.1818 13.7386 55.7386 13.9489C56.3011 14.1591 56.8381 14.446 57.3494 14.8097C57.8665 15.1676 58.2926 15.6278 58.6278 16.1903C58.9631 16.7528 59.1307 17.4432 59.1307 18.2614C59.1307 19.2045 58.8835 20.0568 58.3892 20.8182C57.9006 21.5795 57.1847 22.1847 56.2415 22.6335C55.304 23.0824 54.1648 23.3068 52.8239 23.3068C51.5739 23.3068 50.4915 23.1051 49.5767 22.7017C48.6676 22.2983 47.9517 21.7358 47.429 21.0142C46.9119 20.2926 46.6193 19.4545 46.5511 18.5H48.733C48.7898 19.1591 49.0114 19.7045 49.3977 20.1364C49.7898 20.5625 50.2841 20.8807 50.8807 21.0909C51.483 21.2955 52.1307 21.3977 52.8239 21.3977C53.6307 21.3977 54.3551 21.267 54.9972 21.0057C55.6392 20.7386 56.1477 20.3693 56.5227 19.8977C56.8977 19.4205 57.0852 18.8636 57.0852 18.2273C57.0852 17.6477 56.9233 17.1761 56.5994 16.8125C56.2756 16.4489 55.8494 16.1534 55.321 15.9261C54.7926 15.6989 54.2216 15.5 53.608 15.3295L51.4602 14.7159C50.0966 14.3239 49.017 13.7642 48.2216 13.0369C47.4261 12.3097 47.0284 11.358 47.0284 10.1818C47.0284 9.20454 47.2926 8.35227 47.821 7.625C48.3551 6.89205 49.071 6.32386 49.9688 5.92045C50.8722 5.51136 51.8807 5.30682 52.9943 5.30682C54.1193 5.30682 55.1193 5.50852 55.9943 5.91193C56.8693 6.30966 57.5625 6.85511 58.0739 7.54829C58.5909 8.24148 58.8636 9.02841 58.892 9.90909H56.8466ZM61.6513 7.42045V5.54545H74.7422V7.42045H69.2536V23H67.1399V7.42045H61.6513ZM78.0043 23V5.54545H83.902C85.2656 5.54545 86.3849 5.77841 87.2599 6.24432C88.1349 6.70454 88.7827 7.33807 89.2031 8.14489C89.6236 8.9517 89.8338 9.86932 89.8338 10.8977C89.8338 11.9261 89.6236 12.8381 89.2031 13.6335C88.7827 14.429 88.1378 15.054 87.2685 15.5085C86.3991 15.9574 85.2884 16.1818 83.9361 16.1818H79.1634V14.2727H83.8679C84.7997 14.2727 85.5497 14.1364 86.1179 13.8636C86.6918 13.5909 87.1065 13.2045 87.3622 12.7045C87.6236 12.1989 87.7543 11.5966 87.7543 10.8977C87.7543 10.1989 87.6236 9.58807 87.3622 9.06534C87.1009 8.54261 86.6832 8.1392 86.1094 7.85511C85.5355 7.56534 84.777 7.42045 83.8338 7.42045H80.1179V23H78.0043ZM86.2202 15.1591L90.5156 23H88.0611L83.8338 15.1591H86.2202ZM94.0717 23H91.8558L98.2649 5.54545H100.447L106.856 23H104.64L99.424 8.30682H99.2876L94.0717 23ZM94.8899 16.1818H103.822V18.0568H94.8899V16.1818ZM123.415 5.54545V23H121.37L111.859 9.29545H111.688V23H109.575V5.54545H111.62L121.165 19.2841H121.336V5.54545H123.415ZM133.031 23H127.645V5.54545H133.27C134.963 5.54545 136.412 5.89489 137.616 6.59375C138.821 7.28693 139.744 8.28409 140.386 9.58523C141.028 10.8807 141.349 12.4318 141.349 14.2386C141.349 16.0568 141.026 17.6222 140.378 18.9347C139.73 20.2415 138.787 21.2472 137.548 21.9517C136.31 22.6506 134.804 23 133.031 23ZM129.759 21.125H132.895C134.338 21.125 135.534 20.8466 136.483 20.2898C137.432 19.733 138.139 18.9403 138.605 17.9119C139.071 16.8835 139.304 15.6591 139.304 14.2386C139.304 12.8295 139.074 11.6165 138.614 10.5994C138.153 9.5767 137.466 8.79261 136.551 8.24716C135.636 7.69602 134.497 7.42045 133.134 7.42045H129.759V21.125ZM5.65341 47.1989C4.69697 47.1989 3.87311 47.0237 3.18182 46.6733C2.49053 46.3229 1.95786 45.8423 1.58381 45.2315C1.20975 44.6207 1.02273 43.9223 1.02273 43.1364C1.02273 42.5303 1.15057 41.9929 1.40625 41.5241C1.66667 41.0507 2.02415 40.6127 2.47869 40.2102C2.93797 39.803 3.46591 39.3958 4.0625 38.9886L6.16477 37.4261C6.5767 37.1562 6.90578 36.8674 7.15199 36.5597C7.40294 36.2519 7.52841 35.8494 7.52841 35.3523C7.52841 34.983 7.36506 34.6255 7.03835 34.2798C6.71638 33.9342 6.29261 33.7614 5.76705 33.7614C5.39773 33.7614 5.07102 33.8561 4.78693 34.0455C4.50758 34.2301 4.28741 34.4669 4.12642 34.7557C3.97017 35.0398 3.89205 35.3333 3.89205 35.6364C3.89205 35.9773 3.98438 36.3229 4.16903 36.6733C4.35843 37.0189 4.59754 37.3741 4.88636 37.7386C5.17992 38.0985 5.48295 38.4678 5.79545 38.8466L12.4716 47H10.4545L4.94318 40.3523C4.43182 39.7367 3.9678 39.178 3.55114 38.6761C3.13447 38.1742 2.80303 37.6795 2.55682 37.1918C2.31061 36.7041 2.1875 36.1761 2.1875 35.608C2.1875 34.9545 2.33191 34.3816 2.62074 33.8892C2.9143 33.392 3.32386 33.0062 3.84943 32.7315C4.37973 32.4522 5 32.3125 5.71023 32.3125C6.43939 32.3125 7.06676 32.4545 7.59233 32.7386C8.1179 33.018 8.52273 33.3897 8.80682 33.8537C9.09091 34.313 9.23295 34.8125 9.23295 35.3523C9.23295 36.0483 9.06013 36.652 8.71449 37.1634C8.36884 37.6747 7.89773 38.1506 7.30114 38.5909L4.40341 40.75C3.75 41.233 3.30729 41.7017 3.07528 42.1562C2.84328 42.6108 2.72727 42.9375 2.72727 43.1364C2.72727 43.5909 2.84564 44.0147 3.08239 44.4077C3.31913 44.8007 3.65294 45.1179 4.08381 45.3594C4.51468 45.6009 5.01894 45.7216 5.59659 45.7216C6.14583 45.7216 6.68087 45.6056 7.2017 45.3736C7.72254 45.1368 8.19366 44.7959 8.61506 44.3509C9.04119 43.9058 9.37737 43.3707 9.62358 42.7457C9.87453 42.1207 10 41.4176 10 40.6364H11.6193C11.6193 41.6023 11.508 42.3906 11.2855 43.0014C11.063 43.6122 10.812 44.0904 10.5327 44.4361C10.2533 44.7817 10.0284 45.0398 9.85795 45.2102C9.80114 45.2812 9.74905 45.3523 9.7017 45.4233C9.65436 45.4943 9.60227 45.5653 9.54545 45.6364C9.0767 46.1619 8.48485 46.5549 7.76989 46.8153C7.05492 47.071 6.34943 47.1989 5.65341 47.1989ZM20.1793 47V32.4545H21.9407V39.6705H22.1112L28.6452 32.4545H30.9464L24.8384 39.017L30.9464 47H28.8157L23.7589 40.2386L21.9407 42.2841V47H20.1793ZM44.7603 32.4545V47H43.0558L35.1296 35.5795H34.9876V47H33.2262V32.4545H34.9308L42.8853 43.9034H43.0273V32.4545H44.7603ZM57.8303 32.4545H59.5916V42.0852C59.5916 43.0795 59.3572 43.9673 58.8885 44.7486C58.4245 45.5251 57.7687 46.1383 56.9212 46.5881C56.0736 47.0331 55.0793 47.2557 53.9382 47.2557C52.7971 47.2557 51.8028 47.0331 50.9553 46.5881C50.1077 46.1383 49.4496 45.5251 48.9808 44.7486C48.5168 43.9673 48.2848 43.0795 48.2848 42.0852V32.4545H50.0462V41.9432C50.0462 42.6534 50.2024 43.2855 50.5149 43.8395C50.8274 44.3887 51.2725 44.822 51.8501 45.1392C52.4325 45.4517 53.1286 45.608 53.9382 45.608C54.7479 45.608 55.4439 45.4517 56.0263 45.1392C56.6087 44.822 57.0537 44.3887 57.3615 43.8395C57.674 43.2855 57.8303 42.6534 57.8303 41.9432V32.4545ZM62.3136 34.017V32.4545H73.2227V34.017H68.6488V47H66.8874V34.017H62.3136ZM83.8956 36.0909C83.8104 35.3712 83.4647 34.8125 82.8587 34.4148C82.2526 34.017 81.5092 33.8182 80.6286 33.8182C79.9846 33.8182 79.4212 33.9223 78.9382 34.1307C78.46 34.339 78.0859 34.6255 77.8161 34.9901C77.5509 35.3546 77.4183 35.7689 77.4183 36.233C77.4183 36.6212 77.5107 36.955 77.6953 37.2344C77.8847 37.509 78.1262 37.7386 78.4197 37.9233C78.7133 38.1032 79.0211 38.2524 79.343 38.3707C79.665 38.4844 79.9609 38.5767 80.2308 38.6477L81.7081 39.0455C82.0869 39.1449 82.5083 39.2822 82.9723 39.4574C83.4411 39.6326 83.8885 39.8717 84.3146 40.1747C84.7455 40.473 85.1006 40.8565 85.38 41.3253C85.6593 41.794 85.799 42.3693 85.799 43.0511C85.799 43.8371 85.593 44.5473 85.1811 45.1818C84.7739 45.8163 84.1773 46.3205 83.3913 46.6946C82.6101 47.0687 81.6607 47.2557 80.5433 47.2557C79.5017 47.2557 78.5997 47.0876 77.8374 46.7514C77.0798 46.4152 76.4832 45.9465 76.0476 45.3452C75.6167 44.7438 75.3729 44.0455 75.3161 43.25H77.1342C77.1816 43.7992 77.3662 44.2538 77.6882 44.6136C78.0149 44.9687 78.4268 45.2339 78.924 45.4091C79.4259 45.5795 79.9657 45.6648 80.5433 45.6648C81.2157 45.6648 81.8194 45.5559 82.3544 45.3381C82.8894 45.1155 83.3132 44.8078 83.6257 44.4148C83.9382 44.017 84.0945 43.553 84.0945 43.0227C84.0945 42.5398 83.9595 42.1468 83.6896 41.8438C83.4197 41.5407 83.0646 41.2945 82.6243 41.1051C82.1839 40.9157 81.7081 40.75 81.1967 40.608L79.407 40.0966C78.2706 39.7699 77.371 39.3035 76.7081 38.6974C76.0452 38.0914 75.7138 37.2983 75.7138 36.3182C75.7138 35.5038 75.9339 34.7936 76.3743 34.1875C76.8194 33.5767 77.416 33.1032 78.1641 32.767C78.9169 32.4261 79.7573 32.2557 80.6854 32.2557C81.6229 32.2557 82.4562 32.4238 83.1854 32.7599C83.9145 33.0914 84.4922 33.5459 84.9183 34.1236C85.3492 34.7012 85.5765 35.357 85.6001 36.0909H83.8956ZM88.695 47V32.4545H97.4734V34.017H90.4563V38.9318H97.0188V40.4943H90.4563V45.4375H97.587V47H88.695ZM112.182 32.4545V47H110.478L102.551 35.5795H102.409V47H100.648V32.4545H102.353L110.307 43.9034H110.449V32.4545H112.182ZM121.928 47H120.082L125.423 32.4545H127.241L132.582 47H130.735L126.388 34.7557H126.275L121.928 47ZM122.61 41.3182H130.053V42.8807H122.61V41.3182ZM142.802 36.0909C142.717 35.3712 142.371 34.8125 141.765 34.4148C141.159 34.017 140.415 33.8182 139.535 33.8182C138.891 33.8182 138.327 33.9223 137.844 34.1307C137.366 34.339 136.992 34.6255 136.722 34.9901C136.457 35.3546 136.325 35.7689 136.325 36.233C136.325 36.6212 136.417 36.955 136.602 37.2344C136.791 37.509 137.032 37.7386 137.326 37.9233C137.62 38.1032 137.927 38.2524 138.249 38.3707C138.571 38.4844 138.867 38.5767 139.137 38.6477L140.614 39.0455C140.993 39.1449 141.415 39.2822 141.879 39.4574C142.347 39.6326 142.795 39.8717 143.221 40.1747C143.652 40.473 144.007 40.8565 144.286 41.3253C144.566 41.794 144.705 42.3693 144.705 43.0511C144.705 43.8371 144.499 44.5473 144.087 45.1818C143.68 45.8163 143.084 46.3205 142.298 46.6946C141.516 47.0687 140.567 47.2557 139.45 47.2557C138.408 47.2557 137.506 47.0876 136.744 46.7514C135.986 46.4152 135.389 45.9465 134.954 45.3452C134.523 44.7438 134.279 44.0455 134.222 43.25H136.04C136.088 43.7992 136.272 44.2538 136.594 44.6136C136.921 44.9687 137.333 45.2339 137.83 45.4091C138.332 45.5795 138.872 45.6648 139.45 45.6648C140.122 45.6648 140.726 45.5559 141.261 45.3381C141.796 45.1155 142.219 44.8078 142.532 44.4148C142.844 44.017 143.001 43.553 143.001 43.0227C143.001 42.5398 142.866 42.1468 142.596 41.8438C142.326 41.5407 141.971 41.2945 141.531 41.1051C141.09 40.9157 140.614 40.75 140.103 40.608L138.313 40.0966C137.177 39.7699 136.277 39.3035 135.614 38.6974C134.951 38.0914 134.62 37.2983 134.62 36.3182C134.62 35.5038 134.84 34.7936 135.281 34.1875C135.726 33.5767 136.322 33.1032 137.07 32.767C137.823 32.4261 138.664 32.2557 139.592 32.2557C140.529 32.2557 141.362 32.4238 142.092 32.7599C142.821 33.0914 143.398 33.5459 143.825 34.1236C144.255 34.7012 144.483 35.357 144.506 36.0909H142.802Z" fill="white"/>
</svg>
