<svg width="124" height="43" viewBox="0 0 124 43" fill="none" xmlns="http://www.w3.org/2000/svg">
<path d="M1.8296 20.197V5.03445H10.8891V6.66325H3.6592V11.7865H10.2104V13.4153H3.6592V20.197H1.8296ZM14.0226 20.197V5.03445H15.8523V18.5682H22.8756V20.197H14.0226ZM37.8684 12.6157C37.8684 14.2149 37.5807 15.5969 37.0052 16.7617C36.4298 17.9266 35.6404 18.8248 34.6371 19.4566C33.6337 20.0884 32.4878 20.4043 31.1992 20.4043C29.9106 20.4043 28.7646 20.0884 27.7613 19.4566C26.758 18.8248 25.9686 17.9266 25.3931 16.7617C24.8177 15.5969 24.53 14.2149 24.53 12.6157C24.53 11.0165 24.8177 9.63455 25.3931 8.46971C25.9686 7.30487 26.758 6.40658 27.7613 5.77481C28.7646 5.14304 29.9106 4.82715 31.1992 4.82715C32.4878 4.82715 33.6337 5.14304 34.6371 5.77481C35.6404 6.40658 36.4298 7.30487 37.0052 8.46971C37.5807 9.63455 37.8684 11.0165 37.8684 12.6157ZM36.0978 12.6157C36.0978 11.3028 35.879 10.1947 35.4412 9.29153C35.0084 8.38827 34.4206 7.7047 33.678 7.24069C32.9402 6.77675 32.114 6.54481 31.1992 6.54481C30.2844 6.54481 29.4556 6.77675 28.713 7.24069C27.9752 7.7047 27.3875 8.38827 26.9498 9.29153C26.517 10.1947 26.3006 11.3028 26.3006 12.6157C26.3006 13.9286 26.517 15.0367 26.9498 15.9399C27.3875 16.8432 27.9752 17.5267 28.713 17.9907C29.4556 18.4547 30.2844 18.6866 31.1992 18.6866C32.114 18.6866 32.9402 18.4547 33.678 17.9907C34.4206 17.5267 35.0084 16.8432 35.4412 15.9399C35.879 15.0367 36.0978 13.9286 36.0978 12.6157ZM49.2075 8.82511C49.119 8.07483 48.76 7.49244 48.1304 7.07781C47.5009 6.66325 46.7287 6.45594 45.8139 6.45594C45.145 6.45594 44.5597 6.56455 44.058 6.7817C43.5613 6.99885 43.1728 7.2975 42.8924 7.67753C42.617 8.05756 42.4793 8.48945 42.4793 8.97314C42.4793 9.37786 42.5752 9.72583 42.767 10.0171C42.9637 10.3033 43.2146 10.5427 43.5195 10.7352C43.8245 10.9228 44.1441 11.0782 44.4786 11.2016C44.813 11.3201 45.1204 11.4163 45.4007 11.4904L46.9353 11.905C47.3287 12.0086 47.7665 12.1517 48.2485 12.3344C48.7354 12.517 49.2001 12.7663 49.6428 13.0821C50.0903 13.3931 50.4592 13.7929 50.7494 14.2816C51.0396 14.7702 51.1847 15.3698 51.1847 16.0806C51.1847 16.8999 50.9707 17.6403 50.5428 18.3017C50.1199 18.9631 49.5001 19.4887 48.6837 19.8787C47.8722 20.2685 46.8861 20.4635 45.7253 20.4635C44.6434 20.4635 43.7064 20.2883 42.9146 19.9379C42.1277 19.5874 41.5079 19.0988 41.0554 18.472C40.6079 17.8451 40.3546 17.1171 40.2956 16.2879H42.1842C42.2334 16.8604 42.4252 17.3343 42.7596 17.7094C43.099 18.0796 43.5269 18.3559 44.0433 18.5386C44.5646 18.7163 45.1253 18.8051 45.7253 18.8051C46.4238 18.8051 47.0508 18.6916 47.6066 18.4645C48.1624 18.2325 48.6025 17.9117 48.9271 17.5021C49.2518 17.0875 49.4141 16.6037 49.4141 16.051C49.4141 15.5475 49.2739 15.1378 48.9936 14.822C48.7132 14.5061 48.3443 14.2494 47.887 14.052C47.4295 13.8546 46.9353 13.6818 46.4041 13.5337L44.5449 13.0007C43.3646 12.6601 42.4301 12.174 41.7416 11.5422C41.053 10.9104 40.7087 10.0837 40.7087 9.062C40.7087 8.21308 40.9374 7.4727 41.3948 6.84092C41.8571 6.20422 42.4768 5.71064 43.2539 5.36021C44.0359 5.00484 44.9089 4.82715 45.8729 4.82715C46.8467 4.82715 47.7123 5.00237 48.4698 5.3528C49.2272 5.6983 49.8272 6.17213 50.2699 6.77427C50.7174 7.37647 50.9535 8.06004 50.9781 8.82511H49.2075ZM53.3665 6.66325V5.03445H64.6983V6.66325H59.9472V20.197H58.1176V6.66325H53.3665ZM67.5222 20.197V5.03445H72.627C73.8079 5.03445 74.7765 5.23681 75.5342 5.64154C76.2912 6.04134 76.8521 6.59165 77.2163 7.29255C77.5798 7.99339 77.7616 8.79052 77.7616 9.68387C77.7616 10.5772 77.5798 11.3695 77.2163 12.0605C76.8521 12.7515 76.2938 13.2944 75.5413 13.6893C74.7889 14.0791 73.8274 14.2741 72.6569 14.2741H68.5253V12.6157H72.5978C73.4041 12.6157 74.0533 12.4972 74.5454 12.2604C75.0421 12.0234 75.4011 11.6878 75.6225 11.2534C75.8484 10.8142 75.962 10.291 75.962 9.68387C75.962 9.07679 75.8484 8.5462 75.6225 8.09216C75.3959 7.63805 75.0349 7.2876 74.5376 7.04081C74.041 6.78913 73.3846 6.66325 72.5679 6.66325H69.3517V20.197H67.5222ZM74.6337 13.3857L78.3524 20.197H76.2275L72.5679 13.3857H74.6337ZM81.4303 20.197H79.5119L85.0601 5.03445H86.9487L92.4962 20.197H90.5784L86.0631 7.43322H85.9456L81.4303 20.197ZM82.1386 14.2741H89.8701V15.9029H82.1386V14.2741ZM106.831 5.03445V20.197H105.06L96.8271 8.29204H96.6797V20.197H94.8496V5.03445H96.6207L104.883 16.9691H105.031V5.03445H106.831ZM115.154 20.197H110.492V5.03445H115.361C116.827 5.03445 118.081 5.33799 119.124 5.94509C120.166 6.54722 120.966 7.41347 121.521 8.54372C122.077 9.66908 122.355 11.0165 122.355 12.5861C122.355 14.1655 122.074 15.5253 121.514 16.6654C120.953 17.8007 120.137 18.6743 119.065 19.2864C117.992 19.8934 116.689 20.197 115.154 20.197ZM112.321 18.5682H115.036C116.285 18.5682 117.321 18.3264 118.142 17.8427C118.963 17.3589 119.576 16.6704 119.979 15.777C120.383 14.8837 120.584 13.82 120.584 12.5861C120.584 11.362 120.385 10.3083 119.987 9.42477C119.589 8.53636 118.993 7.8552 118.201 7.38135C117.409 6.90262 116.424 6.66325 115.243 6.66325H112.321V18.5682ZM4.40432 39.2464C3.6592 39.2464 3.01737 39.1094 2.47881 38.8355C1.94026 38.5616 1.52528 38.1858 1.23387 37.7083C0.942456 37.2308 0.796753 36.6847 0.796753 36.0702C0.796753 35.5965 0.896349 35.1763 1.09554 34.8098C1.29842 34.4396 1.57692 34.0972 1.93103 33.7826C2.28884 33.4642 2.70013 33.1458 3.16491 32.8275L4.80271 31.6059C5.12363 31.3949 5.37999 31.1691 5.5718 30.9285C5.7673 30.6879 5.86506 30.3732 5.86506 29.9845C5.86506 29.6957 5.7378 29.4163 5.48327 29.1461C5.23244 28.8758 4.9023 28.7407 4.49285 28.7407C4.20513 28.7407 3.95061 28.8148 3.72929 28.9628C3.51165 29.1072 3.34013 29.2923 3.21471 29.5181C3.09298 29.7402 3.03212 29.9697 3.03212 30.2066C3.03212 30.4731 3.10405 30.7434 3.24791 31.0173C3.39546 31.2875 3.58174 31.5652 3.80675 31.8502C4.03545 32.1316 4.27153 32.4203 4.51499 32.7164L9.71607 39.0909H8.14471L3.85102 33.8936C3.45263 33.4124 3.09114 32.9755 2.76653 32.5832C2.44192 32.1908 2.18372 31.8039 1.9919 31.4227C1.80009 31.0414 1.70418 30.6287 1.70418 30.1844C1.70418 29.6736 1.81669 29.2257 2.0417 28.8406C2.2704 28.452 2.58947 28.1503 2.99892 27.9356C3.41206 27.7172 3.89528 27.608 4.44859 27.608C5.01665 27.608 5.5054 27.7191 5.91486 27.9412C6.3243 28.1595 6.6397 28.4501 6.86102 28.8129C7.08234 29.172 7.19297 29.5625 7.19297 29.9845C7.19297 30.5287 7.05838 31.0007 6.78909 31.4004C6.51979 31.8003 6.15277 32.1723 5.68799 32.5165L3.4305 34.2046C2.92146 34.5821 2.57656 34.9486 2.39581 35.304C2.21507 35.6594 2.1247 35.9148 2.1247 36.0702C2.1247 36.4256 2.21691 36.7569 2.40135 37.0642C2.58578 37.3714 2.84584 37.6195 3.18151 37.8082C3.51718 37.997 3.91004 38.0914 4.36006 38.0914C4.78795 38.0914 5.20478 38.0007 5.61054 37.8194C6.0163 37.6343 6.38332 37.3677 6.71164 37.0198C7.04358 36.6718 7.30547 36.2535 7.49732 35.7649C7.6928 35.2762 7.79057 34.7265 7.79057 34.1157H9.05212C9.05212 34.8709 8.96545 35.4872 8.79205 35.9648C8.61871 36.4423 8.42316 36.8162 8.20555 37.0864C7.98793 37.3567 7.81271 37.5584 7.67988 37.6917C7.63566 37.7472 7.59509 37.8027 7.55815 37.8583C7.52127 37.9138 7.4807 37.9693 7.43642 38.0248C7.07124 38.4357 6.61017 38.7429 6.05318 38.9465C5.49618 39.1464 4.94657 39.2464 4.40432 39.2464ZM15.7209 39.0909V27.7191H17.093V33.3605H17.2259L22.3163 27.7191H24.109L19.3505 32.8497L24.109 39.0909H22.4491L18.5096 33.8048L17.093 35.4039V39.0909H15.7209ZM34.8709 27.7191V39.0909H33.5429L27.368 30.1622H27.2573V39.0909H25.8851V27.7191H27.2131L33.4101 36.67H33.5208V27.7191H34.8709ZM45.0531 27.7191H46.4253V35.2485C46.4253 36.0259 46.2427 36.7199 45.8775 37.3307C45.516 37.9378 45.0051 38.4172 44.3449 38.7689C43.6846 39.1169 42.91 39.2908 42.021 39.2908C41.132 39.2908 40.3574 39.1169 39.6971 38.7689C39.0368 38.4172 38.5241 37.9378 38.1589 37.3307C37.7974 36.7199 37.6167 36.0259 37.6167 35.2485V27.7191H38.9888V35.1374C38.9888 35.6927 39.1106 36.1869 39.354 36.62C39.5975 37.0494 39.9442 37.3881 40.3943 37.6361C40.8479 37.8804 41.3902 38.0026 42.021 38.0026C42.6517 38.0026 43.194 37.8804 43.6477 37.6361C44.1014 37.3881 44.4481 37.0494 44.6879 36.62C44.9314 36.1869 45.0531 35.6927 45.0531 35.1374V27.7191ZM48.5459 28.9406V27.7191H57.0447V28.9406H53.4814V39.0909H52.1091V28.9406H48.5459ZM65.3597 30.562C65.2928 29.9994 65.024 29.5625 64.5517 29.2515C64.0795 28.9406 63.5004 28.7851 62.8143 28.7851C62.3126 28.7851 61.8737 28.8666 61.4974 29.0294C61.1249 29.1923 60.8334 29.4163 60.6232 29.7013C60.4166 29.9864 60.3133 30.3103 60.3133 30.673C60.3133 30.9766 60.3853 31.2376 60.5291 31.4559C60.6766 31.6707 60.8648 31.8502 61.0935 31.9946C61.3222 32.1353 61.562 32.2518 61.8128 32.3444C62.0636 32.4332 62.2942 32.5054 62.5044 32.561L63.6553 32.8719C63.9504 32.9497 64.2787 33.057 64.6402 33.194C65.0052 33.3309 65.3538 33.5179 65.6862 33.7548C66.0219 33.988 66.2984 34.2878 66.5159 34.6543C66.7334 35.0208 66.8425 35.4706 66.8425 36.0037C66.8425 36.6181 66.6821 37.1734 66.3608 37.6694C66.044 38.1654 65.5791 38.5597 64.9669 38.8521C64.358 39.1446 63.6184 39.2908 62.7479 39.2908C61.9364 39.2908 61.2337 39.1594 60.6398 38.8966C60.0496 38.6338 59.5848 38.2673 59.2454 37.7971C58.9098 37.327 58.7198 36.781 58.6756 36.1591H60.092C60.1289 36.5885 60.2728 36.9439 60.5236 37.2252C60.7781 37.5029 61.099 37.7102 61.4863 37.8471C61.8774 37.9804 62.2979 38.047 62.7479 38.047C63.2717 38.047 63.742 37.9618 64.1588 37.7916C64.5756 37.6176 64.9058 37.377 65.1493 37.0697C65.3928 36.7588 65.5142 36.396 65.5142 35.9814C65.5142 35.6038 65.409 35.2966 65.1993 35.0597C64.989 34.8228 64.7122 34.6303 64.369 34.4822C64.026 34.3341 63.6553 34.2046 63.2569 34.0935L61.8626 33.6937C60.9773 33.4383 60.2765 33.0737 59.76 32.5998C59.2436 32.126 58.9854 31.506 58.9854 30.7397C58.9854 30.1029 59.1569 29.5477 59.4999 29.0739C59.8467 28.5963 60.3114 28.2262 60.8943 27.9634C61.4808 27.6968 62.1356 27.5635 62.8585 27.5635C63.5889 27.5635 64.2381 27.6949 64.8062 27.9578C65.374 28.2169 65.8245 28.5723 66.1563 29.0239C66.4919 29.4755 66.6691 29.9882 66.6873 30.562H65.3597ZM69.0985 39.0909V27.7191H75.9373V28.9406H70.4709V32.7831H75.5835V34.0047H70.4709V37.8693H76.0256V39.0909H69.0985ZM87.3966 27.7191V39.0909H86.0683L79.8936 30.1622H79.7826V39.0909H78.4108V27.7191H79.7385L85.9359 36.67H86.0463V27.7191H87.3966ZM94.9892 39.0909H93.5505L97.7114 27.7191H99.1279L103.289 39.0909H101.85L98.4638 29.5181H98.3755L94.9892 39.0909ZM95.5203 34.6488H101.319V35.8704H95.5203V34.6488ZM111.251 30.562C111.185 29.9994 110.915 29.5625 110.443 29.2515C109.971 28.9406 109.392 28.7851 108.706 28.7851C108.204 28.7851 107.765 28.8666 107.389 29.0294C107.016 29.1923 106.725 29.4163 106.515 29.7013C106.308 29.9864 106.204 30.3103 106.204 30.673C106.204 30.9766 106.276 31.2376 106.421 31.4559C106.568 31.6707 106.756 31.8502 106.985 31.9946C107.213 32.1353 107.453 32.2518 107.704 32.3444C107.955 32.4332 108.186 32.5054 108.395 32.561L109.547 32.8719C109.842 32.9497 110.17 33.057 110.531 33.194C110.897 33.3309 111.246 33.5179 111.577 33.7548C111.913 33.988 112.189 34.2878 112.407 34.6543C112.625 35.0208 112.734 35.4706 112.734 36.0037C112.734 36.6181 112.573 37.1734 112.252 37.6694C111.935 38.1654 111.47 38.5597 110.858 38.8521C110.25 39.1446 109.51 39.2908 108.639 39.2908C107.827 39.2908 107.125 39.1594 106.531 38.8966C105.941 38.6338 105.476 38.2673 105.137 37.7971C104.801 37.327 104.611 36.781 104.567 36.1591H105.984C106.02 36.5885 106.164 36.9439 106.415 37.2252C106.669 37.5029 106.991 37.7102 107.378 37.8471C107.769 37.9804 108.189 38.047 108.639 38.047C109.163 38.047 109.634 37.9618 110.05 37.7916C110.467 37.6176 110.797 37.377 111.04 37.0697C111.284 36.7588 111.406 36.396 111.406 35.9814C111.406 35.6038 111.301 35.2966 111.09 35.0597C110.88 34.8228 110.603 34.6303 110.261 34.4822C109.917 34.3341 109.547 34.2046 109.149 34.0935L107.754 33.6937C106.869 33.4383 106.168 33.0737 105.651 32.5998C105.135 32.126 104.877 31.506 104.877 30.7397C104.877 30.1029 105.048 29.5477 105.392 29.0739C105.738 28.5963 106.203 28.2262 106.785 27.9634C107.372 27.6968 108.027 27.5635 108.75 27.5635C109.48 27.5635 110.13 27.6949 110.698 27.9578C111.266 28.2169 111.716 28.5723 112.047 29.0239C112.384 29.4755 112.56 29.9882 112.579 30.562H111.251Z" fill="#002EB6"/>
</svg>
