<svg width="65" height="65" viewBox="0 0 65 65" fill="none" xmlns="http://www.w3.org/2000/svg">
<g clip-path="url(#clip0_5_49)">
<path d="M15.3481 35.8258C15.9988 35.5984 16.7117 35.6276 17.3416 35.9075C17.9715 36.1875 18.4709 36.697 18.7382 37.3324C19.0054 37.9677 19.0204 38.6811 18.78 39.3271C18.5396 39.9731 18.062 40.5031 17.4444 40.8092L17.1519 40.9338C16.3053 41.2331 15.5464 41.738 14.9434 42.4032C14.3403 43.0685 13.912 43.8731 13.6968 44.7448C13.4817 45.6166 13.4866 46.5281 13.711 47.3975C13.9354 48.2669 14.3723 49.0669 14.9824 49.7257C15.5925 50.3844 16.3568 50.8813 17.2064 51.1715C18.0561 51.4618 18.9646 51.5364 19.8503 51.3886C20.7359 51.2409 21.571 50.8754 22.2804 50.325C22.9898 49.7746 23.5514 49.0566 23.9146 48.2354L24.0689 47.8481C24.1799 47.5034 24.3588 47.1844 24.5951 46.91C24.8314 46.6356 25.1204 46.4114 25.4449 46.2507C25.7694 46.0899 26.1228 45.9959 26.4843 45.9741C26.8458 45.9523 27.2079 46.0033 27.5494 46.1239C27.8908 46.2446 28.2046 46.4324 28.4722 46.6765C28.7397 46.9205 28.9557 47.2157 29.1071 47.5446C29.2586 47.8736 29.3426 48.2295 29.3541 48.5915C29.3656 48.9534 29.3044 49.314 29.1742 49.6519C28.5645 51.3782 27.5274 52.9219 26.1596 54.1388C24.7918 55.3558 23.138 56.2064 21.3526 56.6112C19.5671 57.016 17.7081 56.9619 15.9493 56.4538C14.1904 55.9457 12.5889 55.0002 11.2943 53.7056C9.99978 52.4111 9.05432 50.8096 8.54622 49.0507C8.03812 47.2919 7.98394 45.4329 8.38875 43.6474C8.79356 41.8619 9.64416 40.2081 10.8611 38.8404C12.0781 37.4726 13.6218 36.4355 15.3481 35.8258ZM49.6519 35.8258C51.3782 36.4355 52.9219 37.4726 54.1388 38.8404C55.3558 40.2081 56.2064 41.8619 56.6112 43.6474C57.016 45.4329 56.9619 47.2919 56.4538 49.0507C55.9457 50.8096 55.0002 52.4111 53.7056 53.7056C52.4111 55.0002 50.8096 55.9457 49.0507 56.4538C47.2918 56.9619 45.4329 57.016 43.6474 56.6112C41.8619 56.2064 40.2081 55.3558 38.8404 54.1388C37.4726 52.9219 36.4355 51.3782 35.8258 49.6519C35.5984 49.0012 35.6276 48.2883 35.9075 47.6584C36.1875 47.0285 36.697 46.5291 37.3323 46.2618C37.9677 45.9946 38.6811 45.9796 39.327 46.22C39.973 46.4604 40.5031 46.938 40.8092 47.5556L40.9337 47.8481C41.2331 48.6947 41.738 49.4536 42.4032 50.0566C43.0684 50.6597 43.8731 51.088 44.7448 51.3031C45.6166 51.5183 46.5281 51.5134 47.3975 51.289C48.2669 51.0646 49.0669 50.6277 49.7257 50.0176C50.3844 49.4075 50.8813 48.6432 51.1715 47.7935C51.4618 46.9439 51.5364 46.0354 51.3886 45.1497C51.2409 44.2641 50.8754 43.429 50.325 42.7196C49.7746 42.0102 49.0565 41.4486 48.2354 41.0854L47.8481 40.9338C47.5127 40.8153 47.2039 40.632 46.9394 40.3942C46.6749 40.1564 46.4598 39.8689 46.3063 39.548C45.9965 38.8999 45.9568 38.1553 46.196 37.4779C46.4352 36.8006 46.9337 36.246 47.5818 35.9361C48.2299 35.6263 48.9745 35.5866 49.6519 35.8258ZM21.6964 17.9833L21.9754 18.1729L29.1742 23.7738C30.0626 24.4649 31.1443 24.8622 32.2689 24.9102C33.3935 24.9583 34.5052 24.6548 35.4494 24.0419L35.8258 23.7738L43.0246 18.1756C43.5226 17.7878 44.1404 17.5861 44.7714 17.6053C45.4023 17.6246 46.0067 17.8637 46.4801 18.2812C46.9535 18.6987 47.2662 19.2685 47.3642 19.8921C47.4622 20.5157 47.3392 21.1539 47.0167 21.6965L46.8271 21.9754L41.2262 29.1742C40.5351 30.0626 40.1378 31.1443 40.0898 32.2689C40.0417 33.3936 40.3452 34.5052 40.9581 35.4494L41.2262 35.8258L46.8244 43.0246C47.2122 43.5226 47.4139 44.1405 47.3947 44.7714C47.3754 45.4023 47.1363 46.0067 46.7188 46.4801C46.3013 46.9535 45.7315 47.2663 45.1079 47.3642C44.4843 47.4622 43.8461 47.3392 43.3035 47.0167L43.0246 46.8271L35.8258 41.2262C34.9374 40.5351 33.8557 40.1378 32.731 40.0898C31.6064 40.0417 30.4948 40.3452 29.5506 40.9581L29.1742 41.2262L21.9754 46.8244C21.4774 47.2122 20.8595 47.4139 20.2286 47.3947C19.5977 47.3754 18.9933 47.1363 18.5199 46.7188C18.0464 46.3013 17.7337 45.7315 17.6358 45.1079C17.5378 44.4843 17.6607 43.8461 17.9833 43.3035L18.1729 43.0246L23.7737 35.8258C24.4649 34.9374 24.8621 33.8557 24.9102 32.7311C24.9582 31.6064 24.6547 30.4948 24.0419 29.5506L23.7737 29.1742L18.1756 21.9754C17.8046 21.4997 17.603 20.9138 17.6028 20.3105C17.6027 19.7072 17.8039 19.1212 18.1747 18.6453C18.5455 18.1694 19.0645 17.8309 19.6495 17.6835C20.2345 17.5361 20.852 17.5883 21.4039 17.8317L21.6964 17.9833ZM46.0417 8.125C48.5982 8.12383 51.0727 9.0268 53.0276 10.6742C54.9825 12.3216 56.2919 14.6073 56.724 17.127C57.1562 19.6467 56.6833 22.2381 55.3891 24.4428C54.0949 26.6474 52.0626 28.3234 49.6519 29.1742C49.0012 29.4016 48.2883 29.3724 47.6584 29.0925C47.0285 28.8125 46.5291 28.303 46.2618 27.6676C45.9945 27.0323 45.9796 26.3189 46.22 25.6729C46.4604 25.0269 46.938 24.4969 47.5556 24.1908L47.8481 24.0662C48.6946 23.7669 49.4536 23.262 50.0566 22.5968C50.6597 21.9315 51.088 21.1269 51.3031 20.2552C51.5182 19.3834 51.5134 18.4719 51.289 17.6025C51.0646 16.7331 50.6277 15.9331 50.0176 15.2743C49.4075 14.6156 48.6432 14.1187 47.7935 13.8285C46.9439 13.5382 46.0354 13.4636 45.1497 13.6114C44.2641 13.7591 43.429 14.1246 42.7196 14.675C42.0102 15.2254 41.4486 15.9434 41.0854 16.7646L40.9337 17.1519C40.6945 17.8292 40.1961 18.3838 39.548 18.6936C38.8999 19.0035 38.1553 19.0432 37.4779 18.804C36.8006 18.5648 36.246 18.0663 35.9361 17.4182C35.6263 16.7701 35.5866 16.0255 35.8258 15.3481C36.5729 13.2357 37.9564 11.4068 39.786 10.1132C41.6155 8.81965 43.801 8.12504 46.0417 8.125ZM18.9583 8.125C21.199 8.12504 23.3845 8.81965 25.214 10.1132C27.0436 11.4068 28.4271 13.2357 29.1742 15.3481C29.4016 15.9988 29.3724 16.7117 29.0924 17.3416C28.8125 17.9715 28.303 18.4709 27.6676 18.7382C27.0323 19.0054 26.3189 19.0204 25.6729 18.78C25.0269 18.5396 24.4969 18.062 24.1908 17.4444L24.0662 17.1519C23.7669 16.3053 23.262 15.5464 22.5968 14.9434C21.9315 14.3403 21.1269 13.912 20.2552 13.6969C19.3834 13.4817 18.4719 13.4866 17.6025 13.711C16.7331 13.9354 15.9331 14.3723 15.2743 14.9824C14.6156 15.5925 14.1187 16.3568 13.8285 17.2065C13.5382 18.0561 13.4636 18.9646 13.6113 19.8503C13.7591 20.7359 14.1246 21.571 14.675 22.2804C15.2254 22.9898 15.9434 23.5514 16.7646 23.9146L17.1519 24.069C17.8097 24.3226 18.3426 24.8227 18.6375 25.463C18.9324 26.1034 18.966 26.8335 18.7312 27.4982C18.4963 28.1629 18.0115 28.7099 17.3798 29.0228C16.7481 29.3358 16.0192 29.3901 15.3481 29.1742C12.9405 28.3206 10.9119 26.6439 9.62031 24.44C8.32873 22.2362 7.85723 19.6469 8.28904 17.1293C8.72085 14.6116 10.0282 12.3274 11.9804 10.6799C13.9325 9.03243 16.4039 8.12755 18.9583 8.125Z" fill="#002EB6"/>
</g>
<defs>
<clipPath id="clip0_5_49">
<rect width="65" height="65" fill="white"/>
</clipPath>
</defs>
</svg>
